<svg width="80" height="80" viewBox="0 0 80 80" fill="none" xmlns="http://www.w3.org/2000/svg">
<path d="M35.7973 2.80664L47.9379 15.4166C48.456 15.9546 48.7848 16.6465 48.8748 17.3878L54.5747 64.3136C54.8235 66.363 53.2241 68.1685 51.1597 68.1685H35.549M35.7973 2.80664L22.9708 12.3149C22.2157 12.8746 21.7226 13.7188 21.6058 14.6513L19.6481 30.2952L15.3924 64.3012C15.1354 66.3546 16.7364 68.1685 18.8058 68.1685H35.549M35.7973 2.80664L35.7462 16.2455L35.549 68.1685" stroke="black" stroke-width="3.4401" stroke-linejoin="round"/>
<path d="M19.4941 34.9143L28.6678 29.1807" stroke="black" stroke-width="3.4401" stroke-linecap="round" stroke-linejoin="round"/>
<path d="M20.6406 22.3007L27.5208 17.7139" stroke="black" stroke-width="3.4401" stroke-linecap="round" stroke-linejoin="round"/>
<path d="M18.3467 47.5296L30.9604 40.6494L18.3467 47.5296Z" fill="black"/>
<path d="M18.3467 47.5296L30.9604 40.6494" stroke="#323338" stroke-width="3.4401" stroke-linecap="round" stroke-linejoin="round"/>
<path fill-rule="evenodd" clip-rule="evenodd" d="M59.5321 28.0323L55.041 26.057V22.2988L55.7334 22.6034L60.9171 24.8832C62.5057 25.5819 63.6367 27.0324 63.9269 28.7435L69.8158 63.4491C70.3502 66.5989 67.9231 69.4726 64.7283 69.4726H60.7755V66.0324H64.7283C65.7933 66.0324 66.6023 65.0745 66.4242 64.0246L60.5353 29.319C60.4385 28.7487 60.0616 28.2651 59.5321 28.0323ZM58.482 67.6918C58.4813 67.7119 58.481 67.7322 58.481 67.7524C58.481 67.7728 58.4813 67.793 58.482 67.8132V67.6918Z" fill="black"/>
<path fill-rule="evenodd" clip-rule="evenodd" d="M10.4104 39.3242L13.7613 38.2384V34.6221L9.34987 36.0517C7.62374 36.6111 6.32018 38.0353 5.91328 39.8021L0.440467 63.5685C-0.303978 66.8012 2.15159 69.8865 5.46902 69.8865H9.17337V66.4464H5.46902C4.36321 66.4464 3.54468 65.418 3.79283 64.3404L9.26565 40.5742C9.40148 39.9843 9.83588 39.5105 10.4104 39.3242Z" fill="black"/>
</svg>
